<svg width="400" height="500" viewBox="0 0 400 500" fill="none" xmlns="http://www.w3.org/2000/svg">
<rect width="400" height="500" fill="#C4C4C4"/>
<rect x="37" y="433" width="50" height="50" fill="white"/>
<rect x="102" y="433" width="261" height="23" fill="#FFFEFE"/>
<rect x="102" y="460" width="261" height="23" fill="#FFFEFE"/>
<rect x="37" y="342" width="50" height="50" fill="white"/>
<rect x="102" y="342" width="261" height="12" fill="#FFFEFE"/>
<rect x="102" y="361" width="261" height="12" fill="#FFFEFE"/>
<rect x="102" y="380" width="261" height="12" fill="#FFFEFE"/>
<rect x="37" y="252" width="50" height="50" fill="white"/>
<rect x="102" y="252" width="261" height="23" fill="#FFFEFE"/>
<rect x="102" y="279" width="261" height="23" fill="#FFFEFE"/>
<rect x="37" y="161" width="50" height="50" fill="white"/>
<rect x="102" y="161" width="261" height="12" fill="#FFFEFE"/>
<rect x="102" y="180" width="261" height="12" fill="#FFFEFE"/>
<rect x="102" y="199" width="261" height="12" fill="#FFFEFE"/>
<rect x="37" y="71" width="50" height="50" fill="white"/>
<rect x="102" y="71" width="261" height="23" fill="#FFFEFE"/>
<rect x="102" y="98" width="261" height="23" fill="#FFFEFE"/>
<path d="M150.426 56.73L115.832 59.1104L115.641 10.8364L122.211 10.4873L122.021 52.1597L150.109 49.9697L150.426 56.73ZM194.79 40.6069C194.79 43.2729 194.346 45.738 193.457 48.002C192.568 50.266 191.352 52.2337 189.807 53.9053C188.263 55.5768 186.453 56.8781 184.38 57.8091C182.306 58.7612 180.095 59.2373 177.747 59.2373C175.398 59.2373 173.197 58.793 171.145 57.9043C169.093 57.0156 167.294 55.7567 165.75 54.1274C164.226 52.4771 163.02 50.5093 162.131 48.2241C161.243 45.939 160.798 43.3999 160.798 40.6069C160.798 37.7928 161.243 35.2432 162.131 32.958C163.02 30.6517 164.226 28.6839 165.75 27.0547C167.294 25.4255 169.093 24.1665 171.145 23.2778C173.197 22.3892 175.398 21.9448 177.747 21.9448C180.095 21.9448 182.306 22.4209 184.38 23.373C186.453 24.304 188.263 25.6053 189.807 27.2769C191.352 28.9272 192.568 30.895 193.457 33.1802C194.346 35.4442 194.79 37.9198 194.79 40.6069ZM188.093 40.5435C188.093 39.02 187.903 37.486 187.522 35.9414C187.141 34.3757 186.538 32.9792 185.713 31.752C184.888 30.5036 183.819 29.488 182.507 28.7051C181.195 27.9222 179.609 27.5308 177.747 27.5308C175.948 27.5308 174.403 27.9222 173.113 28.7051C171.822 29.488 170.764 30.5036 169.939 31.752C169.114 32.9792 168.511 34.3757 168.13 35.9414C167.749 37.486 167.559 39.02 167.559 40.5435C167.559 42.0669 167.76 43.6009 168.162 45.1455C168.585 46.6901 169.22 48.0866 170.066 49.335C170.912 50.5622 171.97 51.5672 173.24 52.3501C174.53 53.133 176.033 53.5244 177.747 53.5244C179.545 53.5244 181.09 53.133 182.38 52.3501C183.692 51.5672 184.771 50.5622 185.618 49.335C186.464 48.0866 187.088 46.6901 187.49 45.1455C187.892 43.6009 188.093 42.0669 188.093 40.5435ZM241.947 20.834L241.756 57.3013C241.735 58.6766 241.555 60.0413 241.217 61.3955C240.878 62.7708 240.37 64.0933 239.693 65.3628C239.037 66.6535 238.212 67.8595 237.218 68.981C236.244 70.1235 235.112 71.1286 233.822 71.9961C232.552 72.8848 231.124 73.6042 229.537 74.1543C227.95 74.7256 226.215 75.0853 224.332 75.2334C221.772 75.318 219.36 75.0535 217.096 74.4399C216.122 74.186 215.128 73.8369 214.112 73.3926C213.118 72.9482 212.155 72.377 211.224 71.6787C210.293 71.0016 209.436 70.1764 208.653 69.2031C207.87 68.251 207.225 67.119 206.717 65.8071L212.843 63.1411C213.245 64.0509 213.731 64.8338 214.303 65.4897C214.874 66.1457 215.488 66.6958 216.144 67.1401C216.799 67.5845 217.466 67.9442 218.143 68.2192C218.841 68.4943 219.518 68.6953 220.174 68.8223C221.719 69.1608 223.348 69.2243 225.062 69.0127C226.543 68.7165 227.823 68.2616 228.902 67.6479C230.003 67.0343 230.934 66.3467 231.695 65.585C232.457 64.8444 233.071 64.0509 233.536 63.2046C234.023 62.3794 234.404 61.5859 234.679 60.8242C234.954 60.0625 235.134 59.3643 235.218 58.7295C235.324 58.1159 235.377 57.6398 235.377 57.3013V53.1436C234.107 54.3496 232.785 55.2806 231.41 55.9365C230.056 56.5713 228.797 57.0368 227.633 57.333C226.279 57.6927 224.946 57.8937 223.634 57.936C221.179 57.936 218.894 57.5023 216.778 56.6348C214.662 55.7884 212.822 54.5718 211.256 52.9849C209.69 51.3768 208.452 49.4302 207.542 47.145C206.654 44.8599 206.209 42.2891 206.209 39.4326C206.209 36.555 206.707 33.9948 207.701 31.752C208.696 29.488 209.997 27.5837 211.605 26.0391C213.234 24.4945 215.064 23.3201 217.096 22.5161C219.148 21.6909 221.211 21.2783 223.285 21.2783C224.723 21.4476 226.173 21.765 227.633 22.2305C228.881 22.6325 230.225 23.2038 231.664 23.9443C233.102 24.6849 234.435 25.6899 235.663 26.9595L235.726 20.6436L241.947 20.834ZM223.634 51.8423C225.03 51.8423 226.384 51.599 227.696 51.1123C229.008 50.6257 230.193 49.9486 231.251 49.0811C232.33 48.1924 233.24 47.145 233.98 45.939C234.721 44.7118 235.229 43.3682 235.504 41.9082V37.7505C235.271 36.2482 234.774 34.8835 234.012 33.6562C233.25 32.4079 232.319 31.3394 231.219 30.4507C230.119 29.562 228.892 28.8743 227.538 28.3877C226.205 27.901 224.84 27.6577 223.443 27.6577C221.92 27.6577 220.513 27.9751 219.222 28.6099C217.931 29.2235 216.821 30.0804 215.89 31.1807C214.98 32.2809 214.26 33.5822 213.731 35.0845C213.224 36.5868 212.97 38.2054 212.97 39.9404C212.97 41.6755 213.234 43.2729 213.763 44.7329C214.292 46.1929 215.022 47.4518 215.953 48.5098C216.905 49.5465 218.027 50.3612 219.317 50.9536C220.629 51.5461 222.068 51.8423 223.634 51.8423ZM286.945 49.0493C286.945 51.0594 286.533 52.7521 285.708 54.1274C284.903 55.4816 283.814 56.5819 282.438 57.4282C281.084 58.2957 279.519 58.9305 277.741 59.3325C275.985 59.7557 274.155 60.0096 272.25 60.0942C270.304 60.0731 268.336 59.8721 266.347 59.4912C265.501 59.3431 264.602 59.1315 263.649 58.8564C262.718 58.6025 261.766 58.2852 260.793 57.9043C259.82 57.5234 258.846 57.0685 257.873 56.5396C256.9 56.0106 255.969 55.397 255.08 54.6987L258.159 49.8745C259.322 50.4881 260.507 51.0806 261.713 51.6519C262.941 52.2231 264.189 52.731 265.458 53.1753C266.728 53.5985 268.029 53.937 269.362 54.1909C270.695 54.4448 272.071 54.5718 273.488 54.5718C274.652 54.5718 275.636 54.466 276.44 54.2544C277.244 54.0216 277.9 53.7466 278.408 53.4292C278.937 53.0907 279.339 52.7204 279.614 52.3184C279.91 51.8952 280.122 51.4932 280.249 51.1123C280.354 50.7738 280.397 50.4035 280.375 50.0015C280.354 49.5783 280.238 49.1551 280.026 48.7319C279.836 48.3088 279.529 47.8962 279.106 47.4941C278.704 47.071 278.164 46.7007 277.487 46.3833C276.81 46.0448 275.985 45.7697 275.012 45.5581C274.038 45.3465 272.885 45.209 271.552 45.1455C269.648 45.0609 267.807 44.8704 266.03 44.5742C264.274 44.2568 262.697 43.7702 261.301 43.1143C259.925 42.4583 258.783 41.6014 257.873 40.5435C256.984 39.4644 256.445 38.1208 256.254 36.5127C256.106 34.9893 256.201 33.6034 256.54 32.355C256.9 31.0854 257.429 29.9535 258.127 28.959C258.846 27.9645 259.724 27.097 260.761 26.3564C261.798 25.5947 262.93 24.9705 264.157 24.4839C265.384 23.9761 266.675 23.6058 268.029 23.373C269.405 23.1191 270.791 22.9922 272.187 22.9922C273.012 22.9922 273.986 23.0345 275.107 23.1191C276.228 23.2038 277.403 23.373 278.63 23.627C279.857 23.8809 281.095 24.2511 282.343 24.7378C283.592 25.2033 284.755 25.8275 285.834 26.6104L283.645 32.4185C282.248 31.6779 280.915 31.1066 279.646 30.7046C278.397 30.2814 277.286 29.9535 276.313 29.7207C275.17 29.4668 274.102 29.2975 273.107 29.2129C269.785 29.0225 267.194 29.3716 265.332 30.2603C263.491 31.1489 262.57 32.4925 262.57 34.291C262.57 35.5605 262.919 36.4915 263.618 37.084C264.316 37.6553 265.268 38.0679 266.474 38.3218C267.68 38.5757 269.087 38.745 270.695 38.8296C272.303 38.9142 274.017 39.0941 275.837 39.3691C277.91 39.6865 279.656 40.1626 281.074 40.7974C282.491 41.4321 283.634 42.1727 284.501 43.019C285.369 43.8654 285.993 44.807 286.374 45.8438C286.755 46.8594 286.945 47.9279 286.945 49.0493Z" fill="#B22222"/>
<path d="M150.426 56.73L150.632 59.7229L153.561 59.5214L153.423 56.5893L150.426 56.73ZM115.832 59.1104L112.832 59.1222L112.844 62.323L116.037 62.1033L115.832 59.1104ZM115.641 10.8364L115.482 7.84065L112.63 7.99221L112.641 10.8483L115.641 10.8364ZM122.211 10.4873L125.211 10.501L125.225 7.32288L122.052 7.49153L122.211 10.4873ZM122.021 52.1597L119.021 52.146L119.006 55.4038L122.254 55.1506L122.021 52.1597ZM150.109 49.9697L153.106 49.829L152.96 46.7383L149.876 46.9788L150.109 49.9697ZM150.22 53.7371L115.626 56.1174L116.037 62.1033L150.632 59.7229L150.22 53.7371ZM118.832 59.0985L118.641 10.8246L112.641 10.8483L112.832 59.1222L118.832 59.0985ZM115.8 13.8322L122.37 13.4831L122.052 7.49153L115.482 7.84065L115.8 13.8322ZM119.211 10.4736L119.021 52.146L125.02 52.1734L125.211 10.501L119.211 10.4736ZM122.254 55.1506L150.342 52.9606L149.876 46.9788L121.787 49.1687L122.254 55.1506ZM147.112 50.1104L147.43 56.8707L153.423 56.5893L153.106 49.829L147.112 50.1104ZM193.457 48.002L190.664 46.9058L193.457 48.002ZM189.807 53.9053L187.604 51.8693L189.807 53.9053ZM184.38 57.8091L183.151 55.0723L183.14 55.0775L183.128 55.0828L184.38 57.8091ZM165.75 54.1274L163.545 56.1623L163.559 56.177L163.572 56.1915L165.75 54.1274ZM162.131 32.958L164.927 34.0454L164.931 34.0367L162.131 32.958ZM165.75 27.0547L163.572 24.9907L163.565 24.9982L163.558 25.0057L165.75 27.0547ZM184.38 23.373L183.128 26.0994L183.14 26.1047L183.151 26.1099L184.38 23.373ZM189.807 27.2769L187.604 29.3129L187.61 29.3199L187.617 29.3268L189.807 27.2769ZM193.457 33.1802L190.661 34.2675L190.664 34.2763L193.457 33.1802ZM187.522 35.9414L184.607 36.6505L184.609 36.6596L187.522 35.9414ZM185.713 31.752L183.21 33.4063L183.217 33.4161L183.223 33.4259L185.713 31.752ZM169.939 31.752L172.428 33.4259L172.435 33.4161L172.442 33.4063L169.939 31.752ZM168.13 35.9414L171.043 36.6596L171.045 36.6505L168.13 35.9414ZM168.162 45.1455L165.258 45.9012L165.263 45.9197L165.268 45.9382L168.162 45.1455ZM170.066 49.335L167.583 51.0184L167.589 51.0283L167.596 51.0382L170.066 49.335ZM173.24 52.3501L171.665 54.9036L171.674 54.9094L171.684 54.9151L173.24 52.3501ZM182.38 52.3501L180.843 49.774L180.834 49.7795L180.825 49.7851L182.38 52.3501ZM185.618 49.335L188.087 51.0382L188.094 51.0283L188.101 51.0184L185.618 49.335ZM191.79 40.6069C191.79 42.934 191.403 45.0231 190.664 46.9058L196.25 49.0981C197.288 46.4528 197.79 43.6119 197.79 40.6069H191.79ZM190.664 46.9058C189.903 48.8467 188.878 50.49 187.604 51.8693L192.01 55.9413C193.825 53.9774 195.234 51.6852 196.25 49.0981L190.664 46.9058ZM187.604 51.8693C186.333 53.2443 184.855 54.3071 183.151 55.0723L185.609 60.5459C188.051 59.4491 190.192 57.9093 192.01 55.9413L187.604 51.8693ZM183.128 55.0828C181.459 55.8492 179.676 56.2373 177.747 56.2373V62.2373C180.514 62.2373 183.154 61.6732 185.632 60.5354L183.128 55.0828ZM177.747 56.2373C175.787 56.2373 173.994 55.8689 172.337 55.1513L169.953 60.6573C172.4 61.717 175.009 62.2373 177.747 62.2373V56.2373ZM172.337 55.1513C170.658 54.4241 169.194 53.4 167.927 52.0634L163.572 56.1915C165.394 58.1133 167.528 59.6072 169.953 60.6573L172.337 55.1513ZM167.954 52.0926C166.708 50.7425 165.692 49.104 164.927 47.1368L159.335 49.3115C160.348 51.9145 161.744 54.2116 163.545 56.1623L167.954 52.0926ZM164.927 47.1368C164.191 45.2431 163.798 43.0792 163.798 40.6069H157.798C157.798 43.7206 158.294 46.6349 159.335 49.3115L164.927 47.1368ZM163.798 40.6069C163.798 38.1104 164.192 35.9366 164.927 34.0453L159.335 31.8707C158.293 34.5498 157.798 37.4752 157.798 40.6069H163.798ZM164.931 34.0367C165.696 32.051 166.708 30.4226 167.941 29.1037L163.558 25.0057C161.745 26.9452 160.344 29.2524 159.332 31.8793L164.931 34.0367ZM167.927 29.1187C169.194 27.7821 170.658 26.758 172.337 26.0308L169.953 20.5248C167.528 21.575 165.394 23.0688 163.572 24.9907L167.927 29.1187ZM172.337 26.0308C173.994 25.3132 175.787 24.9448 177.747 24.9448V18.9448C175.009 18.9448 172.4 19.4651 169.953 20.5248L172.337 26.0308ZM177.747 24.9448C179.676 24.9448 181.459 25.3329 183.128 26.0994L185.632 20.6467C183.154 19.5089 180.514 18.9448 177.747 18.9448V24.9448ZM183.151 26.1099C184.855 26.8751 186.333 27.9378 187.604 29.3129L192.01 25.2409C190.192 23.2728 188.051 21.733 185.609 20.6362L183.151 26.1099ZM187.617 29.3268C188.879 30.675 189.899 32.3085 190.661 34.2675L196.253 32.0928C195.238 29.4815 193.825 27.1795 191.997 25.2269L187.617 29.3268ZM190.664 34.2763C191.402 36.1563 191.79 38.2556 191.79 40.6069H197.79C197.79 37.5839 197.289 34.7321 196.25 32.084L190.664 34.2763ZM191.093 40.5435C191.093 38.7675 190.871 36.9924 190.435 35.2232L184.609 36.6596C184.935 37.9796 185.093 39.2725 185.093 40.5435H191.093ZM190.437 35.2324C189.98 33.3532 189.242 31.6244 188.202 30.078L183.223 33.4259C183.834 34.3339 184.302 35.3981 184.607 36.6505L190.437 35.2324ZM188.216 30.0977C187.137 28.4654 185.735 27.1377 184.045 26.1289L180.97 31.2812C181.903 31.8382 182.639 32.5418 183.21 33.4063L188.216 30.0977ZM184.045 26.1289C182.176 25.0137 180.032 24.5308 177.747 24.5308V30.5308C179.186 30.5308 180.215 30.8307 180.97 31.2812L184.045 26.1289ZM177.747 24.5308C175.505 24.5308 173.4 25.0224 171.557 26.14L174.669 31.2701C175.407 30.822 176.391 30.5308 177.747 30.5308V24.5308ZM171.557 26.14C169.891 27.1507 168.508 28.4761 167.436 30.0977L172.442 33.4063C173.02 32.531 173.754 31.8252 174.669 31.2701L171.557 26.14ZM167.449 30.078C166.41 31.6244 165.672 33.3532 165.215 35.2324L171.045 36.6505C171.35 35.3981 171.818 34.3339 172.428 33.4259L167.449 30.078ZM165.217 35.2232C164.781 36.9924 164.559 38.7675 164.559 40.5435H170.559C170.559 39.2725 170.717 37.9796 171.043 36.6596L165.217 35.2232ZM164.559 40.5435C164.559 42.3337 164.795 44.1216 165.258 45.9012L171.065 44.3899C170.724 43.0802 170.559 41.8 170.559 40.5435H164.559ZM165.268 45.9382C165.773 47.7805 166.541 49.4812 167.583 51.0184L172.549 47.6515C171.899 46.692 171.397 45.5997 171.055 44.3528L165.268 45.9382ZM167.596 51.0382C168.679 52.608 170.042 53.9025 171.665 54.9036L174.814 49.7966C173.899 49.2319 173.146 48.5164 172.536 47.6318L167.596 51.0382ZM171.684 54.9151C173.505 56.0195 175.56 56.5244 177.747 56.5244V50.5244C176.505 50.5244 175.556 50.2465 174.796 49.7851L171.684 54.9151ZM177.747 56.5244C179.988 56.5244 182.094 56.0328 183.936 54.9151L180.825 49.7851C180.086 50.2331 179.102 50.5244 177.747 50.5244V56.5244ZM183.918 54.9262C185.59 53.9283 186.99 52.6288 188.087 51.0382L183.148 47.6318C182.552 48.4955 181.794 49.2061 180.843 49.774L183.918 54.9262ZM188.101 51.0184C189.15 49.4709 189.91 47.7573 190.394 45.9012L184.587 44.3899C184.266 45.6229 183.778 46.7023 183.135 47.6515L188.101 51.0184ZM190.394 45.9012C190.857 44.1216 191.093 42.3337 191.093 40.5435H185.093C185.093 41.8 184.928 43.0802 184.587 44.3899L190.394 45.9012ZM241.947 20.834L244.947 20.8496L244.962 17.9249L242.039 17.8354L241.947 20.834ZM241.756 57.3013L244.756 57.3474L244.756 57.3322L244.756 57.3169L241.756 57.3013ZM241.217 61.3955L238.306 60.6679L238.304 60.6785L241.217 61.3955ZM239.693 65.3628L237.046 63.951L237.032 63.9772L237.019 64.0036L239.693 65.3628ZM237.218 68.981L234.973 66.9905L234.953 67.0128L234.934 67.0356L237.218 68.981ZM233.822 71.9961L232.148 69.5062L232.125 69.5221L232.101 69.5384L233.822 71.9961ZM229.537 74.1543L228.554 71.3198L228.538 71.3256L228.521 71.3316L229.537 74.1543ZM224.332 75.2334L224.431 78.2318L224.499 78.2295L224.567 78.2242L224.332 75.2334ZM217.096 74.4399L217.88 71.5444L217.867 71.5407L217.853 71.5371L217.096 74.4399ZM214.112 73.3926L212.888 76.1316L212.899 76.1364L212.91 76.1411L214.112 73.3926ZM211.224 71.6787L213.024 69.2787L213.006 69.2655L212.989 69.2525L211.224 71.6787ZM208.653 69.2031L210.991 67.3228L210.981 67.3103L210.971 67.2978L208.653 69.2031ZM206.717 65.8071L205.52 63.0564L202.88 64.2053L203.92 66.8901L206.717 65.8071ZM212.843 63.1411L215.587 61.9286L214.381 59.1998L211.646 60.3904L212.843 63.1411ZM218.143 68.2192L217.014 70.9986L217.029 71.0046L217.043 71.0105L218.143 68.2192ZM220.174 68.8223L220.817 65.8918L220.781 65.8839L220.744 65.8769L220.174 68.8223ZM225.062 69.0127L225.43 71.9901L225.541 71.9764L225.65 71.9544L225.062 69.0127ZM228.902 67.6479L227.441 65.0279L227.43 65.0339L227.419 65.0401L228.902 67.6479ZM231.695 65.585L229.604 63.434L229.589 63.4487L229.574 63.4636L231.695 65.585ZM233.536 63.2046L230.952 61.6806L230.929 61.7194L230.907 61.7588L233.536 63.2046ZM235.218 58.7295L232.262 58.2198L232.252 58.2762L232.245 58.333L235.218 58.7295ZM235.377 53.1436H238.377V46.1556L233.311 50.9686L235.377 53.1436ZM231.41 55.9365L232.683 58.6529L232.692 58.6486L232.701 58.6443L231.41 55.9365ZM227.633 57.333L226.893 54.4257L226.878 54.4296L226.863 54.4336L227.633 57.333ZM223.634 57.936V60.936H223.682L223.731 60.9345L223.634 57.936ZM216.778 56.6348L217.916 53.859L217.904 53.8541L217.892 53.8493L216.778 56.6348ZM211.256 52.9849L209.106 55.0777L209.113 55.0848L209.12 55.0919L211.256 52.9849ZM207.542 47.145L204.746 48.2324L204.751 48.2436L204.755 48.2547L207.542 47.145ZM207.701 31.752L210.444 32.968L210.448 32.9584L207.701 31.752ZM211.605 26.0391L209.541 23.8619L209.534 23.8687L209.527 23.8755L211.605 26.0391ZM217.096 22.5161L218.2 25.3055L218.207 25.3026L218.215 25.2996L217.096 22.5161ZM223.285 21.2783L223.635 18.2989L223.461 18.2783H223.285V21.2783ZM227.633 22.2305L228.552 19.3749L228.544 19.3722L227.633 22.2305ZM231.664 23.9443L233.037 21.2769L231.664 23.9443ZM235.663 26.9595L233.506 29.0445L238.589 34.3031L238.662 26.9896L235.663 26.9595ZM235.726 20.6436L235.818 17.645L232.757 17.5513L232.726 20.6134L235.726 20.6436ZM231.251 49.0811L233.153 51.4009L233.158 51.3968L231.251 49.0811ZM233.98 45.939L236.537 47.5088L236.543 47.4989L236.549 47.489L233.98 45.939ZM235.504 41.9082L238.452 42.4636L238.504 42.1883V41.9082H235.504ZM235.504 37.7505H238.504V37.5195L238.469 37.2912L235.504 37.7505ZM234.012 33.6562L231.451 35.2188L231.457 35.2286L231.463 35.2383L234.012 33.6562ZM227.538 28.3877L226.509 31.2058L226.516 31.2084L226.523 31.2109L227.538 28.3877ZM219.222 28.6099L220.51 31.3193L220.528 31.3107L220.546 31.3019L219.222 28.6099ZM215.89 31.1807L213.599 29.2428L213.589 29.2558L213.578 29.2689L215.89 31.1807ZM213.731 35.0845L210.902 34.0881L210.895 34.1059L210.889 34.1238L213.731 35.0845ZM215.953 48.5098L213.701 50.4916L213.722 50.5155L213.744 50.539L215.953 48.5098ZM219.317 50.9536L218.066 53.6801L218.074 53.6839L218.083 53.6877L219.317 50.9536ZM238.947 20.8183L238.756 57.2856L244.756 57.3169L244.947 20.8496L238.947 20.8183ZM238.757 57.2551C238.739 58.3972 238.59 59.5334 238.306 60.6679L244.127 62.1231C244.521 60.5493 244.731 58.956 244.756 57.3474L238.757 57.2551ZM238.304 60.6785C238.026 61.8082 237.608 62.8976 237.046 63.951L242.34 66.7746C243.133 65.2889 243.731 63.7334 244.13 62.1126L238.304 60.6785ZM237.019 64.0036C236.483 65.0585 235.804 66.0536 234.973 66.9905L239.462 70.9714C240.62 69.6655 241.592 68.2485 242.368 66.7219L237.019 64.0036ZM234.934 67.0356C234.145 67.9622 233.22 68.786 232.148 69.5062L235.495 74.4859C237.005 73.4712 238.344 72.2849 239.502 70.9264L234.934 67.0356ZM232.101 69.5384C231.077 70.2552 229.901 70.853 228.554 71.3198L230.52 76.9888C232.347 76.3554 234.027 75.5143 235.542 74.4538L232.101 69.5384ZM228.521 71.3316C227.214 71.8022 225.745 72.113 224.097 72.2426L224.567 78.2242C226.686 78.0576 228.687 77.6489 230.553 76.977L228.521 71.3316ZM224.233 72.235C221.944 72.3107 219.831 72.0732 217.88 71.5444L216.311 77.3355C218.888 78.0339 221.6 78.3253 224.431 78.2318L224.233 72.235ZM217.853 71.5371C217.046 71.3267 216.201 71.0317 215.315 70.6441L212.91 76.1411C214.055 76.6421 215.198 77.0454 216.338 77.3428L217.853 71.5371ZM215.336 70.6536C214.559 70.3064 213.788 69.8519 213.024 69.2787L209.424 74.0787C210.522 74.902 211.677 75.5901 212.888 76.1316L215.336 70.6536ZM212.989 69.2525C212.289 68.7439 211.622 68.1071 210.991 67.3228L206.316 71.0834C207.251 72.2458 208.297 73.2593 209.46 74.1049L212.989 69.2525ZM210.971 67.2978C210.417 66.6245 209.923 65.7794 209.515 64.7241L203.92 66.8901C204.527 68.4585 205.324 69.8774 206.336 71.1084L210.971 67.2978ZM207.915 68.5579L214.04 65.8919L211.646 60.3904L205.52 63.0564L207.915 68.5579ZM210.099 64.3536C210.605 65.5 211.245 66.5473 212.04 67.4601L216.565 63.5194C216.217 63.1204 215.884 62.6019 215.587 61.9286L210.099 64.3536ZM212.04 67.4601C212.766 68.2926 213.571 69.0208 214.461 69.6239L217.826 64.6564C217.405 64.3708 216.982 63.9988 216.565 63.5194L212.04 67.4601ZM214.461 69.6239C215.276 70.1761 216.127 70.6383 217.014 70.9986L219.272 65.4398C218.805 65.25 218.323 64.9929 217.826 64.6564L214.461 69.6239ZM217.043 71.0105C217.893 71.3449 218.747 71.6017 219.604 71.7676L220.744 65.8769C220.29 65.789 219.79 65.6437 219.243 65.428L217.043 71.0105ZM219.532 71.7527C221.437 72.1703 223.41 72.2394 225.43 71.9901L224.694 66.0353C223.286 66.2091 222 66.1513 220.817 65.8918L219.532 71.7527ZM225.65 71.9544C227.38 71.6085 228.975 71.0578 230.385 70.2558L227.419 65.0401C226.672 65.4653 225.706 65.8244 224.474 66.071L225.65 71.9544ZM230.364 70.268C231.666 69.5417 232.829 68.6938 233.817 67.7063L229.574 63.4636C229.038 63.9996 228.339 64.527 227.441 65.0279L230.364 70.268ZM233.787 67.7359C234.74 66.8087 235.543 65.7817 236.165 64.6503L230.907 61.7588C230.599 62.3202 230.174 62.8801 229.604 63.434L233.787 67.7359ZM236.12 64.7285C236.685 63.771 237.152 62.8086 237.5 61.8432L231.857 59.8053C231.656 60.3633 231.361 60.9878 230.952 61.6806L236.12 64.7285ZM237.5 61.8432C237.83 60.9302 238.073 60.0202 238.192 59.126L232.245 58.333C232.195 58.7083 232.078 59.1948 231.857 59.8053L237.5 61.8432ZM238.175 59.2392C238.29 58.5721 238.377 57.8972 238.377 57.3013H232.377C232.377 57.3825 232.358 57.6597 232.262 58.2198L238.175 59.2392ZM238.377 57.3013V53.1436H232.377V57.3013H238.377ZM233.311 50.9686C232.236 51.9892 231.17 52.7271 230.118 53.2287L232.701 58.6443C234.4 57.8341 235.978 56.71 237.443 55.3186L233.311 50.9686ZM230.136 53.2201C228.914 53.7932 227.835 54.1859 226.893 54.4257L228.373 60.2403C229.758 59.8877 231.197 59.3493 232.683 58.6529L230.136 53.2201ZM226.863 54.4336C225.714 54.7387 224.607 54.9031 223.537 54.9376L223.731 60.9345C225.285 60.8843 226.844 60.6467 228.403 60.2325L226.863 54.4336ZM223.634 54.936C221.541 54.936 219.645 54.5679 217.916 53.859L215.64 59.4105C218.143 60.4367 220.818 60.936 223.634 60.936V54.936ZM217.892 53.8493C216.151 53.1529 214.66 52.1641 213.391 50.8778L209.12 55.0919C210.983 56.9795 213.173 58.4239 215.664 59.4202L217.892 53.8493ZM213.405 50.892C212.14 49.5925 211.108 47.9893 210.33 46.0353L204.755 48.2547C205.797 50.871 207.24 53.161 209.106 55.0777L213.405 50.892ZM210.338 46.0577C209.605 44.1714 209.209 41.9775 209.209 39.4326H203.209C203.209 42.6006 203.703 45.5484 204.746 48.2324L210.338 46.0577ZM209.209 39.4326C209.209 36.9023 209.646 34.7674 210.444 32.968L204.959 30.5359C203.768 33.2222 203.209 36.2078 203.209 39.4326H209.209ZM210.448 32.9584C211.302 31.0149 212.388 29.4469 213.683 28.2027L209.527 23.8755C207.606 25.7205 206.09 27.961 204.954 30.5455L210.448 32.9584ZM213.669 28.2162C215.028 26.9276 216.535 25.9647 218.2 25.3055L215.992 19.7267C213.594 20.6756 211.44 22.0613 209.541 23.8619L213.669 28.2162ZM218.215 25.2996C219.935 24.6077 221.62 24.2783 223.285 24.2783V18.2783C220.803 18.2783 218.361 18.7741 215.977 19.7327L218.215 25.2996ZM222.934 24.2578C224.172 24.4034 225.434 24.6781 226.721 25.0887L228.544 19.3722C226.912 18.8518 225.275 18.4918 223.635 18.2989L222.934 24.2578ZM226.713 25.0861C227.774 25.4278 228.965 25.9296 230.291 26.6117L233.037 21.2769C231.484 20.478 229.988 19.8372 228.552 19.3749L226.713 25.0861ZM230.291 26.6117C231.413 27.1893 232.485 27.9892 233.506 29.0445L237.82 24.8744C236.385 23.3907 234.792 22.1805 233.037 21.2769L230.291 26.6117ZM238.662 26.9896L238.726 20.6737L232.726 20.6134L232.663 26.9293L238.662 26.9896ZM235.634 23.6422L241.855 23.8326L242.039 17.8354L235.818 17.645L235.634 23.6422ZM223.634 54.8423C225.387 54.8423 227.095 54.5353 228.74 53.925L226.653 48.2996C225.674 48.6626 224.673 48.8423 223.634 48.8423V54.8423ZM228.74 53.925C230.356 53.3254 231.832 52.4839 233.153 51.4009L229.349 46.7613C228.554 47.4132 227.66 47.9259 226.653 48.2996L228.74 53.925ZM233.158 51.3968C234.497 50.2945 235.625 48.9941 236.537 47.5088L231.424 44.3692C230.855 45.2959 230.163 46.0903 229.344 46.7653L233.158 51.3968ZM236.549 47.489C237.481 45.9444 238.113 44.2621 238.452 42.4636L232.556 41.3528C232.344 42.4742 231.961 43.4791 231.412 44.389L236.549 47.489ZM238.504 41.9082V37.7505H232.504V41.9082H238.504ZM238.469 37.2912C238.177 35.4118 237.547 33.6617 236.561 32.0742L231.463 35.2383C232.001 36.1052 232.365 37.0846 232.539 38.2098L238.469 37.2912ZM236.573 32.0937C235.638 30.5615 234.481 29.2292 233.104 28.1169L229.334 32.7845C230.158 33.4495 230.863 34.2543 231.451 35.2188L236.573 32.0937ZM233.104 28.1169C231.739 27.0139 230.216 26.1625 228.552 25.5645L226.523 31.2109C227.567 31.5862 228.499 32.1101 229.334 32.7845L233.104 28.1169ZM228.566 25.5696C226.909 24.9646 225.197 24.6577 223.443 24.6577V30.6577C224.483 30.6577 225.5 30.8375 226.509 31.2058L228.566 25.5696ZM223.443 24.6577C221.489 24.6577 219.625 25.0685 217.898 25.9178L220.546 31.3019C221.401 30.8817 222.351 30.6577 223.443 30.6577V24.6577ZM217.934 25.9005C216.255 26.6987 214.803 27.82 213.599 29.2428L218.18 33.1185C218.838 32.3408 219.608 31.7482 220.51 31.3193L217.934 25.9005ZM213.578 29.2689C212.418 30.671 211.535 32.2909 210.902 34.0881L216.561 36.0808C216.986 34.8735 217.541 33.8908 218.202 33.0925L213.578 29.2689ZM210.889 34.1238C210.268 35.9633 209.97 37.9093 209.97 39.9404H215.97C215.97 38.5015 216.18 37.2102 216.573 36.0452L210.889 34.1238ZM209.97 39.9404C209.97 41.9833 210.282 43.9311 210.943 45.7549L216.584 43.711C216.187 42.6148 215.97 41.3676 215.97 39.9404H209.97ZM210.943 45.7549C211.586 47.5316 212.498 49.1247 213.701 50.4916L218.205 46.5279C217.546 45.7789 216.998 44.8542 216.584 43.711L210.943 45.7549ZM213.744 50.539C214.968 51.8722 216.416 52.9228 218.066 53.6801L220.569 48.2271C219.637 47.7996 218.843 47.2209 218.163 46.4806L213.744 50.539ZM218.083 53.6877C219.816 54.4703 221.68 54.8423 223.634 54.8423V48.8423C222.456 48.8423 221.443 48.6218 220.552 48.2195L218.083 53.6877ZM285.708 54.1274L283.135 52.5839L283.128 52.5958L285.708 54.1274ZM282.438 57.4282L280.866 54.8732L280.843 54.8875L280.82 54.9021L282.438 57.4282ZM277.741 59.3325L277.079 56.4064L277.059 56.4111L277.038 56.416L277.741 59.3325ZM272.25 60.0942L272.218 63.0941L272.301 63.095L272.384 63.0913L272.25 60.0942ZM266.347 59.4912L266.911 56.5447L266.888 56.5402L266.864 56.5361L266.347 59.4912ZM263.649 58.8564L264.482 55.9743L264.46 55.9681L264.439 55.9622L263.649 58.8564ZM260.793 57.9043L259.7 60.698L260.793 57.9043ZM255.08 54.6987L252.551 53.0849L251.088 55.3774L253.227 57.0577L255.08 54.6987ZM258.159 49.8745L259.558 47.2208L257.115 45.9329L255.63 48.2607L258.159 49.8745ZM261.713 51.6519L260.429 54.3631L260.438 54.3674L260.447 54.3716L261.713 51.6519ZM265.458 53.1753L264.467 56.0069L264.489 56.0143L264.51 56.0213L265.458 53.1753ZM276.44 54.2544L277.203 57.1556L277.239 57.1463L277.274 57.1361L276.44 54.2544ZM278.408 53.4292L279.998 55.9732L280.011 55.9647L280.025 55.956L278.408 53.4292ZM279.614 52.3184L277.156 50.598L277.147 50.6111L277.138 50.6243L279.614 52.3184ZM280.249 51.1123L283.095 52.061L283.104 52.0341L283.112 52.0071L280.249 51.1123ZM280.375 50.0015L277.379 50.1513L277.38 50.1591L280.375 50.0015ZM280.026 48.7319L277.291 49.963L277.316 50.0188L277.343 50.0736L280.026 48.7319ZM279.106 47.4941L276.931 49.5604L276.984 49.6162L277.04 49.6691L279.106 47.4941ZM277.487 46.3833L276.146 49.0666L276.18 49.0836L276.214 49.0997L277.487 46.3833ZM271.552 45.1455L271.695 42.1489L271.685 42.1485L271.552 45.1455ZM266.03 44.5742L265.496 47.5264L265.516 47.53L265.537 47.5334L266.03 44.5742ZM261.301 43.1143L260.009 45.8221L260.017 45.8259L260.025 45.8296L261.301 43.1143ZM257.873 40.5435L255.557 42.4506L255.578 42.4753L255.598 42.4996L257.873 40.5435ZM256.254 36.5127L253.268 36.803L253.272 36.8343L253.275 36.8655L256.254 36.5127ZM256.54 32.355L253.654 31.5372L253.649 31.5535L253.645 31.5698L256.54 32.355ZM258.127 28.959L255.696 27.2006L255.684 27.2178L255.672 27.2351L258.127 28.959ZM260.761 26.3564L262.505 28.7976L262.521 28.786L262.537 28.7741L260.761 26.3564ZM264.157 24.4839L265.263 27.2726L265.284 27.2644L265.304 27.2559L264.157 24.4839ZM268.029 23.373L268.537 26.3297L268.556 26.3266L268.574 26.3232L268.029 23.373ZM282.343 24.7378L281.254 27.5329L281.274 27.541L281.295 27.5487L282.343 24.7378ZM285.834 26.6104L288.642 27.6688L289.449 25.5265L287.596 24.1821L285.834 26.6104ZM283.645 32.4185L282.239 35.0688L285.249 36.6653L286.452 33.4769L283.645 32.4185ZM279.646 30.7046L278.682 33.5458L278.711 33.5555L278.74 33.5646L279.646 30.7046ZM276.313 29.7207L277.011 26.803L276.987 26.7974L276.964 26.7921L276.313 29.7207ZM273.107 29.2129L273.362 26.2237L273.321 26.2202L273.279 26.2178L273.107 29.2129ZM265.332 30.2603L264.039 27.5528L264.027 27.5586L265.332 30.2603ZM263.618 37.084L261.677 39.3715L261.697 39.3889L261.718 39.4059L263.618 37.084ZM275.837 39.3691L276.291 36.4037L276.285 36.4028L275.837 39.3691ZM286.374 45.8438L283.558 46.8782L283.561 46.8877L283.565 46.8971L286.374 45.8438ZM283.945 49.0493C283.945 50.6521 283.618 51.7794 283.135 52.584L288.28 55.6709C289.448 53.7248 289.945 51.4667 289.945 49.0493H283.945ZM283.128 52.5958C282.578 53.5215 281.839 54.2747 280.866 54.8732L284.011 59.9832C285.789 58.889 287.229 57.4417 288.287 55.6591L283.128 52.5958ZM280.82 54.9021C279.795 55.5586 278.562 56.0711 277.079 56.4064L278.403 62.2586C280.475 61.7899 282.373 61.0329 284.057 59.9543L280.82 54.9021ZM277.038 56.416C275.479 56.7917 273.84 57.0206 272.117 57.0972L272.384 63.0913C274.469 62.9986 276.491 62.7196 278.444 62.249L277.038 56.416ZM272.283 57.0944C270.522 57.0753 268.732 56.8934 266.911 56.5447L265.783 62.4377C267.94 62.8508 270.086 63.0709 272.218 63.0941L272.283 57.0944ZM266.864 56.5361C266.139 56.4092 265.346 56.2238 264.482 55.9743L262.817 61.7386C263.857 62.0392 264.863 62.277 265.83 62.4463L266.864 56.5361ZM264.439 55.9622C263.619 55.7385 262.768 55.4557 261.886 55.1106L259.7 60.698C260.764 61.1146 261.818 61.4665 262.86 61.7507L264.439 55.9622ZM261.886 55.1106C261.036 54.7778 260.176 54.3765 259.306 53.9037L256.441 59.1754C257.517 59.7605 258.603 60.269 259.7 60.698L261.886 55.1106ZM259.306 53.9037C258.483 53.4567 257.693 52.9362 256.934 52.3398L253.227 57.0577C254.245 57.8578 255.316 58.5645 256.441 59.1754L259.306 53.9037ZM257.609 56.3126L260.688 51.4884L255.63 48.2607L252.551 53.0849L257.609 56.3126ZM256.759 52.5282C257.962 53.1621 259.185 53.7737 260.429 54.3631L262.998 48.9406C261.83 48.3874 260.683 47.8141 259.558 47.2208L256.759 52.5282ZM260.447 54.3716C261.764 54.9844 263.104 55.5296 264.467 56.0069L266.45 50.3437C265.274 49.9323 264.117 49.4619 262.979 48.9321L260.447 54.3716ZM264.51 56.0213C265.908 56.4873 267.339 56.8594 268.801 57.1379L269.924 51.2439C268.72 51.0146 267.548 50.7096 266.407 50.3292L264.51 56.0213ZM268.801 57.1379C270.327 57.4286 271.891 57.5718 273.488 57.5718V51.5718C272.251 51.5718 271.064 51.461 269.924 51.2439L268.801 57.1379ZM273.488 57.5718C274.816 57.5718 276.073 57.4531 277.203 57.1556L275.676 51.3532C275.199 51.4789 274.488 51.5718 273.488 51.5718V57.5718ZM277.274 57.1361C278.247 56.8543 279.182 56.4829 279.998 55.9732L276.818 50.8852C276.618 51.0103 276.241 51.189 275.606 51.3727L277.274 57.1361ZM280.025 55.956C280.799 55.4605 281.532 54.828 282.09 54.0124L277.138 50.6243C277.146 50.6128 277.074 50.7208 276.791 50.9024L280.025 55.956ZM282.071 54.0387C282.489 53.4426 282.854 52.782 283.095 52.061L277.402 50.1636C277.389 50.2043 277.331 50.3478 277.156 50.598L282.071 54.0387ZM283.112 52.0071C283.337 51.2857 283.409 50.5542 283.371 49.8438L277.38 50.1591C277.382 50.207 277.38 50.2329 277.379 50.24C277.378 50.2467 277.379 50.2377 277.385 50.2175L283.112 52.0071ZM283.372 49.8517C283.328 48.9679 283.085 48.1414 282.71 47.3903L277.343 50.0736C277.368 50.1238 277.377 50.153 277.38 50.1622C277.382 50.1705 277.38 50.1657 277.379 50.1513L283.372 49.8517ZM282.762 47.5008C282.377 46.6439 281.808 45.9228 281.172 45.3191L277.04 49.6691C277.251 49.8696 277.295 49.9736 277.291 49.963L282.762 47.5008ZM281.281 45.4279C280.56 44.6694 279.685 44.1003 278.761 43.6669L276.214 49.0997C276.644 49.301 276.847 49.4725 276.931 49.5604L281.281 45.4279ZM278.829 43.7C277.871 43.221 276.795 42.8756 275.649 42.6266L274.374 48.4896C275.175 48.6638 275.75 48.8685 276.146 49.0666L278.829 43.7ZM275.649 42.6266C274.469 42.37 273.142 42.2178 271.695 42.1489L271.41 48.1421C272.628 48.2001 273.608 48.323 274.374 48.4896L275.649 42.6266ZM271.685 42.1485C269.895 42.0689 268.175 41.8903 266.523 41.615L265.537 47.5334C267.44 47.8506 269.401 48.0529 271.419 48.1425L271.685 42.1485ZM266.563 41.622C265.025 41.3439 263.703 40.9282 262.576 40.3989L260.025 45.8296C261.691 46.6121 263.523 47.1697 265.496 47.5264L266.563 41.622ZM262.592 40.4064C261.558 39.9134 260.761 39.301 260.148 38.5873L255.598 42.4996C256.804 43.9018 258.293 45.0033 260.009 45.8221L262.592 40.4064ZM260.189 38.6363C259.721 38.0678 259.367 37.2894 259.234 36.1599L253.275 36.8655C253.522 38.9521 254.248 40.8609 255.557 42.4506L260.189 38.6363ZM259.24 36.2224C259.121 34.9952 259.208 33.9807 259.435 33.1402L253.645 31.5698C253.195 33.226 253.092 34.9833 253.268 36.803L259.24 36.2224ZM259.426 33.1728C259.702 32.1995 260.093 31.3789 260.582 30.6829L255.672 27.2351C254.764 28.528 254.097 29.9714 253.654 31.5372L259.426 33.1728ZM260.558 30.7173C261.079 29.9961 261.722 29.3566 262.505 28.7976L259.018 23.9152C257.726 24.8374 256.613 25.9329 255.696 27.2006L260.558 30.7173ZM262.537 28.7741C263.362 28.1682 264.268 27.6672 265.263 27.2726L263.051 21.6952C261.592 22.2739 260.234 23.0213 258.985 23.9388L262.537 28.7741ZM265.304 27.2559C266.319 26.836 267.395 26.5261 268.537 26.3297L267.521 20.4164C265.955 20.6855 264.45 21.1161 263.01 21.7118L265.304 27.2559ZM268.574 26.3232C269.77 26.1024 270.973 25.9922 272.187 25.9922V19.9922C270.608 19.9922 269.039 20.1359 267.485 20.4229L268.574 26.3232ZM272.187 25.9922C272.915 25.9922 273.81 26.0298 274.881 26.1106L275.333 20.1276C274.161 20.0392 273.109 19.9922 272.187 19.9922V25.9922ZM274.881 26.1106C275.861 26.1846 276.907 26.334 278.022 26.5647L279.238 20.6892C277.898 20.4121 276.596 20.223 275.333 20.1276L274.881 26.1106ZM278.022 26.5647C279.074 26.7824 280.151 27.103 281.254 27.5329L283.433 21.9427C282.039 21.3992 280.64 20.9793 279.238 20.6892L278.022 26.5647ZM281.295 27.5487C282.289 27.9194 283.213 28.4149 284.073 29.0386L287.596 24.1821C286.298 23.2401 284.894 22.4871 283.391 21.9269L281.295 27.5487ZM283.027 25.5519L280.837 31.36L286.452 33.4769L288.642 27.6688L283.027 25.5519ZM285.05 29.7681C283.522 28.9579 282.022 28.3102 280.551 27.8446L278.74 33.5646C279.808 33.903 280.974 34.3979 282.239 35.0688L285.05 29.7681ZM280.609 27.8634C279.299 27.4193 278.096 27.0626 277.011 26.803L275.615 32.6384C276.476 32.8443 277.496 33.1435 278.682 33.5458L280.609 27.8634ZM276.964 26.7921C275.712 26.514 274.51 26.3214 273.362 26.2237L272.853 32.2021C273.694 32.2736 274.629 32.4196 275.662 32.6493L276.964 26.7921ZM273.279 26.2178C269.73 26.0143 266.555 26.3522 264.039 27.5528L266.624 32.9677C267.832 32.391 269.841 32.0306 272.936 32.208L273.279 26.2178ZM264.027 27.5586C262.754 28.1732 261.608 29.0384 260.786 30.239C259.948 31.4618 259.57 32.8525 259.57 34.291H265.57C265.57 33.9311 265.653 33.7507 265.736 33.6299C265.834 33.4869 266.068 33.2359 266.636 32.9619L264.027 27.5586ZM259.57 34.291C259.57 36.0854 260.076 38.0131 261.677 39.3715L265.559 34.7965C265.588 34.8216 265.614 34.8505 265.632 34.8766C265.649 34.9016 265.649 34.9096 265.641 34.888C265.622 34.8382 265.57 34.6611 265.57 34.291H259.57ZM261.718 39.4059C262.899 40.3721 264.343 40.939 265.856 41.2574L267.092 35.3861C266.193 35.1968 265.733 34.9384 265.517 34.7621L261.718 39.4059ZM265.856 41.2574C267.252 41.5512 268.819 41.735 270.538 41.8254L270.853 35.8337C269.356 35.7549 268.109 35.6001 267.092 35.3861L265.856 41.2574ZM270.538 41.8254C272.036 41.9043 273.652 42.0729 275.389 42.3354L276.285 36.4028C274.383 36.1152 272.571 35.9242 270.853 35.8337L270.538 41.8254ZM275.383 42.3346C277.277 42.6245 278.745 43.0416 279.848 43.5354L282.3 38.0593C280.567 37.2836 278.544 36.7486 276.291 36.4037L275.383 42.3346ZM279.848 43.5354C281.03 44.0646 281.852 44.625 282.406 45.1664L286.596 40.8717C285.416 39.7204 283.953 38.7996 282.3 38.0593L279.848 43.5354ZM282.406 45.1664C282.985 45.731 283.346 46.3011 283.558 46.8782L289.19 44.8093C288.64 43.3129 287.753 41.9998 286.596 40.8717L282.406 45.1664ZM283.565 46.8971C283.815 47.5645 283.945 48.2753 283.945 49.0493H289.945C289.945 47.5805 289.694 46.1542 289.183 44.7904L283.565 46.8971Z" fill="#B22222"/>
</svg>
